<?xml version="1.0" standalone="no"?>
<!DOCTYPE svg PUBLIC "-//W3C//DTD SVG 20010904//EN"
 "http://www.w3.org/TR/2001/REC-SVG-20010904/DTD/svg10.dtd">
<svg version="1.0" xmlns="http://www.w3.org/2000/svg"
 width="262.000000pt" height="189.000000pt" viewBox="0 0 262.000000 189.000000"
 preserveAspectRatio="xMidYMid meet">

<g transform="translate(0.000000,189.000000) scale(0.100000,-0.100000)"
fill="#000000" stroke="none">
<path d="M925 1811 c-78 -28 -125 -55 -206 -117 -93 -71 -160 -102 -323 -148
-185 -53 -232 -79 -267 -148 -63 -123 -3 -291 118 -332 94 -32 149 -22 343 65
l95 42 190 8 c123 5 234 15 315 30 99 18 164 23 312 23 119 1 191 -3 197 -10
16 -15 -85 -133 -162 -188 -88 -63 -126 -74 -309 -91 -179 -16 -221 -30 -291
-94 -56 -52 -89 -125 -90 -202 -1 -139 101 -198 325 -187 112 6 184 27 243 72
45 35 108 48 154 33 30 -10 42 -23 69 -75 41 -77 74 -102 245 -188 100 -50
138 -64 173 -64 119 0 203 84 212 212 8 110 -9 142 -158 288 -70 70 -135 143
-145 165 -25 51 -26 132 -2 168 l18 27 62 -32 c56 -30 70 -33 147 -33 69 0 94
4 133 24 70 34 148 111 182 178 26 50 30 68 29 138 -1 99 -24 156 -91 223 -97
97 -184 115 -418 88 -77 -9 -162 -18 -190 -21 -81 -9 -179 11 -370 74 -99 33
-215 67 -257 75 -102 21 -219 19 -283 -3z m335 -26 c52 -13 154 -44 225 -68
214 -74 276 -80 500 -52 66 9 158 16 205 17 74 1 93 -3 144 -27 68 -32 125
-86 158 -147 33 -62 33 -204 0 -266 -36 -69 -96 -126 -168 -162 -89 -46 -170
-48 -261 -6 -35 16 -63 33 -63 38 0 10 38 27 145 64 143 50 224 160 213 290
-5 59 -21 82 -79 120 -99 62 -220 68 -314 15 -52 -30 -60 -31 -167 -31 -204 0
-353 34 -522 120 -92 46 -105 50 -170 50 -89 0 -160 -31 -229 -98 -66 -64
-100 -132 -101 -203 -1 -66 16 -97 76 -136 62 -42 142 -43 298 -4 176 43 289
61 389 61 75 0 196 -20 222 -36 5 -3 -1 -23 -14 -45 -20 -36 -25 -39 -52 -34
-127 24 -303 15 -550 -26 -66 -12 -201 -24 -300 -29 l-180 -7 -125 -56 c-151
-66 -190 -74 -264 -53 -71 21 -108 53 -136 118 -18 42 -21 64 -17 115 10 124
57 161 286 227 154 44 235 82 315 145 73 58 161 105 236 126 70 19 172 12 300
-20z m8 -110 c163 -82 270 -109 489 -121 l132 -7 -23 -31 c-13 -17 -38 -64
-56 -103 -18 -40 -36 -73 -39 -73 -3 0 -28 7 -55 15 -130 40 -307 27 -578 -42
-130 -32 -148 -34 -196 -25 -166 34 -200 171 -78 317 49 59 103 95 169 111 80
20 134 11 235 -41z m944 -75 c109 -41 144 -96 126 -200 -19 -107 -95 -178
-241 -224 -47 -15 -91 -34 -98 -42 -6 -8 -15 -14 -19 -14 -5 0 -60 25 -124 56
l-115 57 20 38 c11 22 21 39 23 39 3 0 40 -22 83 -48 90 -56 131 -72 183 -72
143 0 271 146 225 256 -20 49 -50 81 -100 107 -33 17 -56 20 -135 19 -87 -2
-93 -1 -73 13 58 41 160 47 245 15z m-45 -65 c79 -36 115 -104 94 -176 -25
-84 -117 -149 -210 -149 -63 0 -84 8 -181 71 l-80 51 17 31 16 31 16 -44 c9
-24 21 -45 27 -47 13 -4 51 84 41 94 -4 3 -14 -11 -23 -33 l-17 -39 -10 30
c-5 17 -14 35 -19 42 -11 14 9 64 46 113 25 32 32 35 94 41 122 10 137 9 189
-16z m-309 -375 c56 -27 102 -52 102 -55 0 -3 -7 -20 -16 -37 -22 -42 -20
-106 6 -166 16 -37 52 -79 145 -169 124 -120 146 -152 160 -231 8 -52 -16
-139 -50 -180 -35 -42 -117 -75 -165 -67 -41 7 -247 109 -317 156 -28 20 -50
46 -68 84 -49 105 -135 123 -251 52 -96 -59 -135 -70 -264 -71 -97 0 -124 3
-172 22 -79 32 -103 67 -103 152 0 153 105 252 288 271 243 25 262 29 323 59
67 33 175 126 218 189 16 23 36 41 46 41 9 0 62 -22 118 -50z"/>
<path d="M566 1544 c-19 -18 -20 -38 -6 -65 13 -23 52 -25 70 -4 15 18 -1 20
-18 3 -9 -9 -16 -8 -29 5 -16 16 -15 17 20 17 29 0 37 4 37 18 0 39 -45 55
-74 26z m54 -15 c0 -5 -12 -9 -26 -9 -22 0 -24 2 -14 14 12 15 40 11 40 -5z"/>
<path d="M675 1533 c-15 -12 -16 -14 -3 -10 13 5 18 -1 21 -31 3 -33 4 -32 5
11 1 26 1 47 0 47 -2 0 -12 -8 -23 -17z"/>
<path d="M236 1364 c-58 -59 -20 -154 63 -154 32 0 44 6 65 31 35 41 34 83 -3
120 -39 38 -88 40 -125 3z"/>
<path d="M420 1251 c0 -17 32 -91 39 -91 4 0 13 17 20 38 8 20 16 43 18 50 3
6 1 12 -5 12 -6 0 -13 -13 -17 -30 -9 -41 -22 -46 -30 -10 -6 29 -25 52 -25
31z"/>
<path d="M529 1233 c-8 -10 -9 -14 -2 -10 8 5 13 -5 16 -30 3 -35 4 -34 5 10
2 52 1 55 -19 30z"/>
<path d="M1083 1655 c-28 -20 -46 -75 -34 -106 14 -39 46 -61 88 -61 30 0 43
7 66 32 24 27 28 39 23 69 -10 68 -89 104 -143 66z"/>
<path d="M1484 1515 c-31 -47 19 -102 63 -70 10 7 15 17 11 21 -4 4 -15 1 -23
-6 -13 -11 -19 -11 -33 3 -15 16 -14 17 20 17 44 0 52 10 32 38 -20 29 -50 28
-70 -3z m56 -5 c0 -5 -9 -10 -20 -10 -11 0 -20 5 -20 10 0 6 9 10 20 10 11 0
20 -4 20 -10z"/>
<path d="M1587 1523 c-13 -13 -7 -25 7 -14 24 20 30 -8 7 -33 -29 -30 -27 -36
12 -35 25 1 27 3 9 6 l-24 5 22 24 c19 19 21 26 10 39 -13 16 -32 20 -43 8z"/>
<path d="M920 1490 c0 -23 33 -91 43 -87 13 4 39 77 33 91 -2 6 -9 -4 -16 -21
-15 -41 -26 -42 -35 -3 -6 28 -25 43 -25 20z"/>
<path d="M1020 1473 c0 -15 2 -16 10 -3 7 11 12 12 20 4 8 -8 5 -19 -14 -39
-14 -15 -26 -30 -26 -31 0 -2 15 -3 33 -3 25 1 27 3 9 6 l-24 5 22 23 c26 27
21 55 -10 55 -12 0 -20 -7 -20 -17z"/>
<path d="M2045 1483 c-30 -7 -63 -42 -70 -74 -4 -17 -11 -26 -19 -23 -7 3 -19
-3 -26 -13 -12 -15 -12 -16 0 -5 8 6 18 12 22 12 13 0 9 -30 -4 -30 -7 0 -5
-5 5 -11 23 -14 11 -32 -16 -23 -17 5 -19 3 -11 -6 21 -21 49 -7 47 23 l-2 27
30 -30 c41 -41 89 -41 130 -1 47 47 34 117 -26 146 -18 8 -35 14 -37 14 -1 -1
-12 -3 -23 -6z"/>
<path d="M1607 954 c-4 -4 -7 -22 -7 -41 0 -26 6 -36 25 -45 26 -11 55 2 55
25 0 7 -4 7 -12 -1 -17 -17 -45 -15 -52 3 -4 12 3 15 34 15 37 0 39 2 31 23
-8 22 -58 36 -74 21z m53 -19 c0 -8 -9 -15 -20 -15 -20 0 -26 11 -13 23 12 13
33 7 33 -8z"/>
<path d="M1706 941 c-4 -5 3 -7 14 -4 11 3 20 0 20 -6 0 -6 -6 -11 -12 -11 -9
0 -9 -3 1 -9 8 -5 11 -16 7 -26 -5 -15 -9 -15 -24 -4 -16 12 -16 12 1 -6 15
-17 19 -17 31 -5 20 21 9 80 -15 80 -10 0 -20 -4 -23 -9z"/>
<path d="M1087 819 c-11 -6 -25 -26 -33 -45 -38 -90 68 -164 143 -100 60 52
20 156 -60 156 -18 0 -40 -5 -50 -11z"/>
<path d="M1244 668 c11 -46 25 -78 34 -78 11 0 46 89 39 97 -3 3 -13 -12 -22
-33 l-17 -39 -12 32 c-14 41 -31 56 -22 21z"/>
<path d="M1338 655 c-3 -14 -1 -25 3 -25 5 0 9 9 9 19 0 11 8 22 18 24 13 4
13 5 -4 6 -16 1 -23 -6 -26 -24z"/>
<path d="M1369 636 c17 -21 4 -38 -22 -30 -17 5 -19 3 -11 -6 7 -6 20 -10 30
-8 25 4 30 43 8 52 -14 5 -15 4 -5 -8z"/>
<path d="M1844 608 c11 -46 25 -78 35 -78 11 0 46 88 38 96 -3 4 -13 -11 -22
-32 l-17 -39 -12 32 c-14 41 -31 56 -22 21z"/>
<path d="M1942 608 c-13 -13 -15 -37 -6 -62 8 -20 43 -21 50 -1 8 20 -13 45
-32 38 -10 -4 -12 0 -8 11 4 11 13 15 28 11 17 -5 18 -4 6 4 -19 14 -23 14
-38 -1z m38 -53 c0 -8 -7 -15 -15 -15 -8 0 -15 7 -15 15 0 8 7 15 15 15 8 0
15 -7 15 -15z"/>
<path d="M2017 539 c-11 -6 -25 -26 -33 -44 -36 -87 70 -164 141 -102 62 54
27 157 -53 157 -21 0 -45 -5 -55 -11z"/>
<path d="M306 795 c-109 -39 -171 -179 -147 -336 13 -80 33 -128 78 -185 150
-191 458 23 429 297 -12 120 -79 197 -194 223 -85 19 -115 19 -166 1z m166
-19 c77 -18 125 -56 155 -124 50 -107 16 -270 -72 -351 -133 -122 -272 -108
-341 36 -80 170 -45 370 76 431 51 25 100 28 182 8z"/>
<path d="M376 744 c-39 -38 6 -110 53 -84 12 6 21 15 21 20 0 13 -13 13 -27
-1 -13 -13 -43 -5 -43 11 0 5 16 10 35 10 24 0 35 5 35 14 0 18 -27 46 -45 46
-7 0 -21 -7 -29 -16z m49 -14 c4 -6 -5 -10 -20 -10 -15 0 -24 4 -20 10 3 6 12
10 20 10 8 0 17 -4 20 -10z"/>
<path d="M483 723 c-28 -38 -28 -43 -4 -43 11 0 21 -5 23 -12 8 -23 14 16 8
52 l-5 35 -22 -32z m13 -30 c-10 -10 -19 5 -10 18 6 11 8 11 12 0 2 -7 1 -15
-2 -18z"/>
<path d="M355 588 c-15 -14 -28 -38 -31 -59 -5 -30 -1 -42 23 -69 72 -80 198
3 149 99 -29 55 -95 69 -141 29z"/>
<path d="M267 374 c10 -26 23 -49 28 -51 6 -2 17 14 24 34 8 21 16 44 18 51 3
6 1 12 -5 12 -6 0 -16 -17 -23 -37 l-12 -38 -12 34 c-6 19 -17 37 -23 39 -8 2
-7 -12 5 -44z"/>
<path d="M376 401 c-4 -5 -3 -17 0 -28 4 -13 3 -14 -3 -5 -8 10 -12 10 -23 -2
-10 -13 -9 -17 6 -23 11 -3 22 -11 27 -17 9 -14 29 14 22 32 -3 8 -5 22 -5 33
0 20 -15 26 -24 10z"/>
<path d="M1416 329 c-35 -41 -34 -83 3 -120 60 -60 151 -23 151 61 0 56 -34
90 -89 90 -32 0 -44 -6 -65 -31z"/>
<path d="M1554 180 c2 -8 10 -32 17 -52 7 -21 17 -38 23 -38 11 0 49 91 41 99
-3 2 -13 -15 -24 -38 -17 -39 -19 -40 -24 -19 -4 13 -13 32 -22 43 -9 11 -14
14 -11 5z"/>
<path d="M1668 173 c26 -5 26 -2 6 -42 -9 -18 -14 -35 -11 -38 6 -5 37 61 37
78 0 5 -12 8 -27 8 -24 -2 -25 -2 -5 -6z"/>
</g>
</svg>
